<?xml version="1.0" encoding="UTF-8" standalone="no"?><!DOCTYPE svg PUBLIC "-//W3C//DTD SVG 1.1//EN" "http://www.w3.org/Graphics/SVG/1.1/DTD/svg11.dtd"><svg width="100%" height="100%" viewBox="0 0 360 450" version="1.1" xmlns="http://www.w3.org/2000/svg" xmlns:xlink="http://www.w3.org/1999/xlink" xml:space="preserve" xmlns:serif="http://www.serif.com/" style="fill-rule:evenodd;clip-rule:evenodd;stroke-linejoin:round;stroke-miterlimit:2;"><g id="Logo"></g><rect id="LogoTextCurves" x="0" y="-0" width="360" height="450" style="fill:none;"/><g id="Logo1" serif:id="Logo"><rect x="0" y="0" width="360" height="450" style="fill:#101010;"/><path d="M360,0l0,450l-360,-0l0,-450l360,0Zm-10.6,10.6l-338.8,-0c0,-0 0,428.8 0,428.8l338.8,0l-0,-428.8Z" style="fill:#808080;"/><g id="BetterCurves"><path d="M135.078,90.364l127.279,127.279l-7.487,7.487l-127.279,-127.279l7.487,-7.487Z" style="fill:#808080;"/><path d="M105.13,120.312l127.279,127.279l-7.487,7.487l-127.279,-127.279l7.487,-7.487Z" style="fill:#808080;"/><path d="M180,45.442l127.279,127.279l-7.487,7.487c0,-0 -43.384,-41.469 -63.639,-63.64c-19.556,-21.405 -57.022,-70.257 -57.022,-70.257l0.869,-0.869Z" style="fill:#808080;"/><path d="M165.026,60.416l127.279,127.279l-7.487,7.487c0,-0 -43.384,-41.468 -63.639,-63.64c-19.556,-21.405 -57.022,-70.257 -57.022,-70.257l0.869,-0.869Z" style="fill:#808080;"/><path d="M150.052,75.39l127.279,127.279l-7.487,7.487c0,-0 -43.384,-41.468 -63.639,-63.64c-19.556,-21.405 -57.022,-70.257 -57.022,-70.257l0.869,-0.869Z" style="fill:#808080;"/><path d="M180,300l-127.279,-127.279l7.487,-7.487c-0,-0 43.384,41.468 63.639,63.639c19.556,21.406 57.022,70.258 57.022,70.258l-0.869,0.869Z" style="fill:#808080;"/><path d="M194.974,285.026l-127.279,-127.279l7.487,-7.487c-0,-0 43.384,41.468 63.639,63.639c19.556,21.406 57.022,70.258 57.022,70.258l-0.869,0.869Z" style="fill:#808080;"/><path d="M209.948,270.052l-127.279,-127.279l7.487,-7.487c-0,-0 43.384,41.468 63.639,63.639c19.556,21.405 57.022,70.258 57.022,70.258l-0.869,0.869Z" style="fill:#808080;"/><path d="M120.104,105.338l127.279,127.279l-7.487,7.487l-127.279,-127.279l7.487,-7.487Z" style="fill:#808080;"/></g><g><path d="M55.151,395.36l0,-39.287l15.953,-0c3.023,-0 5.633,0.536 7.831,1.608c2.214,1.072 3.911,2.602 5.088,4.588c1.196,1.969 1.793,4.307 1.793,7.014c0,2.689 -0.606,5.027 -1.819,7.013c-1.195,1.969 -2.9,3.498 -5.115,4.588c-2.197,1.072 -4.808,1.609 -7.831,1.609l-10.705,-0l-0,-7.673l10.125,-0c1.318,-0 2.443,-0.22 3.375,-0.66c0.949,-0.457 1.678,-1.098 2.188,-1.924c0.528,-0.844 0.791,-1.828 0.791,-2.953c0,-1.161 -0.263,-2.145 -0.791,-2.954c-0.51,-0.826 -1.239,-1.467 -2.188,-1.924c-0.932,-0.457 -2.057,-0.686 -3.375,-0.686l-6.117,0l-0,31.641l-9.203,-0Z" style="fill:#808080;fill-rule:nonzero;"/><path d="M98.077,395.834c-1.863,0 -3.515,-0.299 -4.957,-0.896c-1.424,-0.615 -2.549,-1.529 -3.375,-2.742c-0.808,-1.231 -1.213,-2.769 -1.213,-4.615c0,-1.582 0.281,-2.9 0.844,-3.955c0.562,-1.054 1.336,-1.907 2.32,-2.557c1.002,-0.668 2.154,-1.169 3.454,-1.503c1.319,-0.352 2.707,-0.598 4.166,-0.739c1.688,-0.14 3.033,-0.29 4.035,-0.448c1.002,-0.176 1.713,-0.413 2.135,-0.712c0.44,-0.316 0.66,-0.756 0.66,-1.318l-0,-0.158c-0,-0.58 -0.167,-1.081 -0.501,-1.503c-0.317,-0.44 -0.774,-0.782 -1.372,-1.028c-0.597,-0.247 -1.309,-0.37 -2.135,-0.37c-0.862,0 -1.617,0.132 -2.268,0.396c-0.633,0.246 -1.134,0.615 -1.503,1.107c-0.369,0.475 -0.589,1.037 -0.659,1.688l-8.2,-0c0.14,-1.987 0.721,-3.692 1.74,-5.115c1.037,-1.442 2.496,-2.54 4.377,-3.296c1.881,-0.774 4.148,-1.16 6.803,-1.16c2.004,-0 3.779,0.219 5.326,0.659c1.547,0.422 2.848,1.054 3.902,1.898c1.073,0.826 1.881,1.837 2.426,3.032c0.545,1.196 0.817,2.558 0.817,4.087l0,18.774l-8.622,-0l0,-3.929l-0.105,0c-0.545,0.984 -1.195,1.802 -1.951,2.452c-0.739,0.651 -1.617,1.143 -2.637,1.477c-1.002,0.316 -2.171,0.474 -3.507,0.474Zm2.637,-5.827c1.055,0 1.995,-0.193 2.821,-0.58c0.844,-0.404 1.503,-0.958 1.978,-1.661c0.474,-0.703 0.712,-1.521 0.712,-2.452l-0,-2.584c-0.229,0.105 -0.519,0.211 -0.871,0.316c-0.333,0.106 -0.72,0.211 -1.16,0.317c-0.422,0.088 -0.887,0.175 -1.397,0.263c-0.51,0.088 -1.055,0.176 -1.635,0.264c-0.826,0.141 -1.564,0.352 -2.215,0.633c-0.633,0.263 -1.134,0.615 -1.503,1.054c-0.369,0.44 -0.553,0.976 -0.553,1.609c-0,0.58 0.158,1.09 0.474,1.529c0.317,0.422 0.756,0.747 1.319,0.976c0.58,0.211 1.256,0.316 2.03,0.316Z" style="fill:#808080;fill-rule:nonzero;"/><path d="M137.259,367.516l-0,6.829l-19.301,0l0,-6.829l19.301,-0Zm-14.555,-7.594l8.833,0l0,26.236c0,0.896 0.176,1.52 0.527,1.872c0.37,0.334 1.064,0.501 2.083,0.501l3.112,-0l-0,6.829l-5.01,-0c-3.287,-0 -5.704,-0.624 -7.251,-1.872c-1.529,-1.248 -2.294,-3.208 -2.294,-5.88l0,-27.686Z" style="fill:#808080;fill-rule:nonzero;"/><path d="M149.783,380.172l0,15.188l-8.833,-0l0,-39.287l8.833,-0l0,18.852l-1.476,0c0.879,-2.443 2.135,-4.386 3.77,-5.827c1.635,-1.459 3.771,-2.188 6.407,-2.188c2.022,-0 3.745,0.439 5.168,1.318c1.442,0.861 2.54,2.109 3.296,3.744c0.774,1.635 1.16,3.604 1.16,5.906l0,17.482l-8.833,-0l0,-15.689c0,-1.687 -0.404,-2.979 -1.212,-3.876c-0.792,-0.896 -1.934,-1.344 -3.428,-1.344c-0.967,-0 -1.82,0.21 -2.558,0.632c-0.721,0.405 -1.283,1.029 -1.687,1.872c-0.405,0.827 -0.607,1.899 -0.607,3.217Z" style="fill:#808080;fill-rule:nonzero;"/><path d="M189.703,395.993c-3.322,-0 -6.214,-0.598 -8.675,-1.793c-2.461,-1.213 -4.377,-2.901 -5.748,-5.063c-1.353,-2.18 -2.03,-4.702 -2.03,-7.567l0,-25.497l8.965,-0l-0,24.732c-0,1.424 0.316,2.689 0.949,3.797c0.633,1.09 1.512,1.951 2.637,2.584c1.125,0.633 2.434,0.949 3.928,0.949c1.495,0 2.795,-0.316 3.903,-0.949c1.125,-0.633 1.995,-1.494 2.61,-2.584c0.633,-1.09 0.949,-2.356 0.949,-3.797l0,-24.732l8.992,-0l-0,25.497c-0,2.882 -0.686,5.405 -2.057,7.567c-1.354,2.162 -3.261,3.85 -5.722,5.063c-2.461,1.195 -5.361,1.793 -8.701,1.793Z" style="fill:#808080;fill-rule:nonzero;"/><path d="M220.131,380.172l-0,15.188l-8.833,-0l-0,-27.844l8.701,-0l0,7.409l-1.345,0c0.879,-2.443 2.136,-4.386 3.771,-5.827c1.635,-1.459 3.77,-2.188 6.407,-2.188c2.022,-0 3.744,0.439 5.168,1.318c1.441,0.861 2.54,2.109 3.296,3.744c0.773,1.635 1.16,3.604 1.16,5.906l0,17.482l-8.833,-0l0,-15.689c0,-1.687 -0.404,-2.979 -1.213,-3.876c-0.791,-0.896 -1.933,-1.344 -3.428,-1.344c-0.966,-0 -1.819,0.21 -2.557,0.632c-0.721,0.405 -1.283,1.029 -1.688,1.872c-0.404,0.827 -0.606,1.899 -0.606,3.217Z" style="fill:#808080;fill-rule:nonzero;"/><path d="M243.598,395.36l-0,-27.844l8.833,-0l-0,27.844l-8.833,-0Zm4.403,-30.718c-1.424,-0 -2.602,-0.422 -3.533,-1.266c-0.914,-0.861 -1.371,-1.942 -1.371,-3.243c-0,-1.301 0.457,-2.364 1.371,-3.19c0.931,-0.844 2.1,-1.266 3.507,-1.266c1.423,0 2.592,0.422 3.506,1.266c0.932,0.826 1.398,1.898 1.398,3.217c-0,1.3 -0.466,2.373 -1.398,3.216c-0.914,0.844 -2.074,1.266 -3.48,1.266Z" style="fill:#808080;fill-rule:nonzero;"/><path d="M274.79,367.516l0,6.829l-19.301,0l0,-6.829l19.301,-0Zm-14.555,-7.594l8.833,0l0,26.236c0,0.896 0.176,1.52 0.528,1.872c0.369,0.334 1.063,0.501 2.083,0.501l3.111,-0l0,6.829l-5.01,-0c-3.287,-0 -5.704,-0.624 -7.251,-1.872c-1.529,-1.248 -2.294,-3.208 -2.294,-5.88l0,-27.686Z" style="fill:#808080;fill-rule:nonzero;"/><path d="M291.059,395.993c-2.83,-0 -5.318,-0.616 -7.462,-1.846c-2.145,-1.248 -3.815,-2.971 -5.01,-5.168c-1.195,-2.197 -1.793,-4.702 -1.793,-7.515c-0,-2.847 0.598,-5.361 1.793,-7.541c1.213,-2.197 2.865,-3.92 4.957,-5.168c2.109,-1.248 4.535,-1.872 7.277,-1.872c2.092,0 3.991,0.352 5.696,1.055c1.722,0.685 3.199,1.67 4.429,2.953c1.248,1.283 2.206,2.804 2.874,4.561c0.686,1.758 1.029,3.692 1.029,5.801l-0,2.373l-25.155,0l0,-5.326l21.015,0l-4.008,1.108c0,-1.248 -0.228,-2.312 -0.685,-3.191c-0.457,-0.896 -1.108,-1.582 -1.952,-2.057c-0.843,-0.492 -1.854,-0.738 -3.032,-0.738c-1.16,0 -2.162,0.246 -3.006,0.738c-0.843,0.475 -1.494,1.161 -1.951,2.057c-0.457,0.879 -0.685,1.943 -0.685,3.191l-0,3.876c-0,1.283 0.228,2.399 0.685,3.348c0.475,0.949 1.16,1.679 2.057,2.189c0.896,0.509 1.977,0.764 3.243,0.764c0.914,0 1.731,-0.123 2.452,-0.369c0.721,-0.264 1.319,-0.624 1.793,-1.081c0.492,-0.475 0.853,-1.028 1.081,-1.661l7.937,-0c-0.334,1.863 -1.143,3.516 -2.426,4.957c-1.266,1.424 -2.865,2.54 -4.799,3.349c-1.916,0.808 -4.034,1.213 -6.354,1.213Z" style="fill:#808080;fill-rule:nonzero;"/></g></g></svg>