<?xml version="1.0" encoding="UTF-8" standalone="no"?>
<!DOCTYPE svg PUBLIC "-//W3C//DTD SVG 1.1//EN" "http://www.w3.org/Graphics/SVG/1.1/DTD/svg11.dtd">
<svg width="100%" height="100%" viewBox="0 0 360 450" version="1.1" xmlns="http://www.w3.org/2000/svg" xmlns:xlink="http://www.w3.org/1999/xlink" xml:space="preserve" xmlns:serif="http://www.serif.com/" style="fill-rule:evenodd;clip-rule:evenodd;stroke-linejoin:round;stroke-miterlimit:2;">
    <g transform="matrix(1,0,0,1,-2750,-315)">
        <g id="Logo" transform="matrix(1.8,0,0,1.8,633.52,-657)">
            <g transform="matrix(1.10384,0,0,1.3798,-138.975,-228.087)">
                <rect x="1191.12" y="556.667" width="181.186" height="181.186" style="fill:rgb(10,10,10);"/>
                <path d="M1372.3,556.667L1372.3,737.853L1191.12,737.853L1191.12,556.667L1372.3,556.667ZM1371.29,557.472L1192.12,557.472L1192.12,737.048L1371.29,737.048L1371.29,557.472Z" style="fill:rgb(170,170,170);"/>
            </g>
            <g id="PathUniteText" transform="matrix(1.24323,0,0,1.24323,832.804,230.379)">
                <g transform="matrix(24,0,0,24,414.141,425.716)">
                </g>
                <text x="297.95px" y="425.716px" style="font-family:'Inter-Bold', 'Inter';font-weight:700;font-size:24px;fill:rgb(170,170,170);">P<tspan x="313.146px 327.072px 336.669px " y="425.716px 425.716px 425.716px ">ath</tspan>Unit<tspan x="399.797px " y="425.716px ">e</tspan></text>
            </g>
            <g id="BarsWithEdits" transform="matrix(0.707107,-0.707107,0.707107,0.707107,370.01,707.382)">
                <g transform="matrix(0.452407,0,0,2.33744,496.542,-1027.49)">
                    <rect x="449.359" y="670.602" width="13.002" height="42.782" style="fill:rgb(170,170,170);"/>
                </g>
                <g transform="matrix(0.452407,0,0,2.33744,473.013,-1027.49)">
                    <rect x="449.359" y="670.602" width="13.002" height="42.782" style="fill:rgb(170,170,170);"/>
                </g>
                <g transform="matrix(0.452407,0,0,2.33744,484.777,-1027.49)">
                    <rect x="449.359" y="670.602" width="13.002" height="42.782" style="fill:rgb(170,170,170);"/>
                </g>
                <g transform="matrix(0.452407,0,0,2.33744,531.836,-1027.49)">
                    <path d="M462.362,670.602L462.362,713.384L449.359,713.384L449.359,688.181C449.359,685.976 450.672,683.778 453.272,681.631L457.485,678.152C457.846,677.853 458.121,677.551 458.307,677.246L462.362,670.602Z" style="fill:rgb(170,170,170);"/>
                </g>
                <g transform="matrix(0.452407,0,0,2.33744,520.072,-1027.49)">
                    <path d="M462.362,670.602L462.362,713.384L449.359,713.384L449.359,688.181C449.359,685.976 450.672,683.778 453.272,681.631L457.485,678.152C457.846,677.853 458.121,677.551 458.307,677.246L462.362,670.602Z" style="fill:rgb(170,170,170);"/>
                </g>
                <g transform="matrix(0.452407,0,0,2.33744,508.307,-1027.49)">
                    <path d="M462.362,670.602L462.362,713.384L449.359,713.384L449.359,688.181C449.359,685.976 450.672,683.778 453.272,681.631L457.485,678.152C457.846,677.853 458.121,677.551 458.307,677.246L462.362,670.602Z" style="fill:rgb(170,170,170);"/>
                </g>
                <g transform="matrix(-0.452407,-5.54039e-17,2.86254e-16,-2.33744,850.188,2207.49)">
                    <path d="M462.362,670.602L462.362,713.384L449.359,713.384L449.359,688.181C449.359,685.976 450.672,683.778 453.272,681.631L457.485,678.152C457.846,677.853 458.121,677.551 458.307,677.246L462.362,670.602Z" style="fill:rgb(170,170,170);"/>
                </g>
                <g transform="matrix(-0.452407,-5.54039e-17,2.86254e-16,-2.33744,861.953,2207.49)">
                    <path d="M462.362,670.602L462.362,713.384L449.359,713.384L449.359,688.181C449.359,685.976 450.672,683.778 453.272,681.631L457.485,678.152C457.846,677.853 458.121,677.551 458.307,677.246L462.362,670.602Z" style="fill:rgb(170,170,170);"/>
                </g>
                <g transform="matrix(-0.452407,-5.54039e-17,2.86254e-16,-2.33744,873.717,2207.49)">
                    <path d="M462.362,670.602L462.362,713.384L449.359,713.384L449.359,688.181C449.359,685.976 450.672,683.778 453.272,681.631L457.485,678.152C457.846,677.853 458.121,677.551 458.307,677.246L462.362,670.602Z" style="fill:rgb(170,170,170);"/>
                </g>
            </g>
        </g>
    </g>
</svg>
