<?xml version="1.0" encoding="UTF-8" standalone="no"?>
<!DOCTYPE svg PUBLIC "-//W3C//DTD SVG 1.1//EN" "http://www.w3.org/Graphics/SVG/1.1/DTD/svg11.dtd">
<svg width="100%" height="100%" viewBox="0 0 360 450" version="1.1" xmlns="http://www.w3.org/2000/svg" xmlns:xlink="http://www.w3.org/1999/xlink" xml:space="preserve" xmlns:serif="http://www.serif.com/" style="fill-rule:evenodd;clip-rule:evenodd;stroke-linejoin:round;stroke-miterlimit:2;">
    <g transform="matrix(1,0,0,1,-3959,-630)">
        <g id="LogoTextCurves" transform="matrix(0.414381,0,0,0.667834,2285.81,606.227)">
            <rect x="4037.82" y="35.597" width="868.767" height="673.82" style="fill:none;"/>
            <clipPath id="_clip1">
                <rect x="4037.82" y="35.597" width="868.767" height="673.82"/>
            </clipPath>
            <g clip-path="url(#_clip1)">
                <g id="Logo" transform="matrix(4.34383,0,0,2.69528,-1069.75,-1419.86)">
                    <g transform="matrix(1.10384,0,0,1.3798,-138.975,-228.087)">
                        <rect x="1191.12" y="556.667" width="181.186" height="181.186" style="fill:rgb(10,10,10);"/>
                        <path d="M1372.3,556.667L1372.3,737.853L1191.12,737.853L1191.12,556.667L1372.3,556.667ZM1371.29,557.472L1192.12,557.472L1192.12,737.048L1371.29,737.048L1371.29,557.472Z" style="fill:rgb(170,170,170);"/>
                    </g>
                    <g id="BarsWithEdits" transform="matrix(0.707107,-0.707107,0.707107,0.707107,370.01,707.382)">
                        <g transform="matrix(0.452407,0,0,2.33744,496.542,-1027.49)">
                            <rect x="449.359" y="670.602" width="13.002" height="42.782" style="fill:rgb(170,170,170);"/>
                        </g>
                        <g transform="matrix(0.452407,0,0,2.33744,473.013,-1027.49)">
                            <rect x="449.359" y="670.602" width="13.002" height="42.782" style="fill:rgb(170,170,170);"/>
                        </g>
                        <g transform="matrix(0.452407,0,0,2.33744,484.777,-1027.49)">
                            <rect x="449.359" y="670.602" width="13.002" height="42.782" style="fill:rgb(170,170,170);"/>
                        </g>
                        <g transform="matrix(0.452407,0,0,2.33744,531.836,-1027.49)">
                            <path d="M462.362,670.602L462.362,713.384L449.359,713.384L449.359,688.181C449.359,685.976 450.672,683.778 453.272,681.631L457.485,678.152C457.846,677.853 458.121,677.551 458.307,677.246L462.362,670.602Z" style="fill:rgb(170,170,170);"/>
                        </g>
                        <g transform="matrix(0.452407,0,0,2.33744,520.072,-1027.49)">
                            <path d="M462.362,670.602L462.362,713.384L449.359,713.384L449.359,688.181C449.359,685.976 450.672,683.778 453.272,681.631L457.485,678.152C457.846,677.853 458.121,677.551 458.307,677.246L462.362,670.602Z" style="fill:rgb(170,170,170);"/>
                        </g>
                        <g transform="matrix(0.452407,0,0,2.33744,508.307,-1027.49)">
                            <path d="M462.362,670.602L462.362,713.384L449.359,713.384L449.359,688.181C449.359,685.976 450.672,683.778 453.272,681.631L457.485,678.152C457.846,677.853 458.121,677.551 458.307,677.246L462.362,670.602Z" style="fill:rgb(170,170,170);"/>
                        </g>
                        <g transform="matrix(-0.452407,-5.54039e-17,2.86254e-16,-2.33744,850.188,2207.49)">
                            <path d="M462.362,670.602L462.362,713.384L449.359,713.384L449.359,688.181C449.359,685.976 450.672,683.778 453.272,681.631L457.485,678.152C457.846,677.853 458.121,677.551 458.307,677.246L462.362,670.602Z" style="fill:rgb(170,170,170);"/>
                        </g>
                        <g transform="matrix(-0.452407,-5.54039e-17,2.86254e-16,-2.33744,861.953,2207.49)">
                            <path d="M462.362,670.602L462.362,713.384L449.359,713.384L449.359,688.181C449.359,685.976 450.672,683.778 453.272,681.631L457.485,678.152C457.846,677.853 458.121,677.551 458.307,677.246L462.362,670.602Z" style="fill:rgb(170,170,170);"/>
                        </g>
                        <g transform="matrix(-0.452407,-5.54039e-17,2.86254e-16,-2.33744,873.717,2207.49)">
                            <path d="M462.362,670.602L462.362,713.384L449.359,713.384L449.359,688.181C449.359,685.976 450.672,683.778 453.272,681.631L457.485,678.152C457.846,677.853 458.121,677.551 458.307,677.246L462.362,670.602Z" style="fill:rgb(170,170,170);"/>
                        </g>
                    </g>
                    <g transform="matrix(0.555556,0,0,0.555556,-1031.38,482.861)">
                        <path d="M4037.31,485.343L4037.31,498.21L4028.11,498.21L4028.11,458.923L4044.06,458.923C4047.09,458.923 4049.7,459.459 4051.89,460.531C4054.11,461.604 4055.81,463.133 4056.98,465.119C4058.18,467.088 4058.78,469.426 4058.78,472.133C4058.78,474.822 4058.17,477.16 4056.96,479.147C4055.76,481.115 4054.06,482.645 4051.84,483.734C4049.64,484.807 4047.04,485.343 4044.01,485.343L4037.31,485.343ZM4037.31,477.67L4043.43,477.67C4044.75,477.67 4045.87,477.45 4046.81,477.011C4047.76,476.554 4048.49,475.912 4048.99,475.086C4049.52,474.242 4049.79,473.258 4049.79,472.133C4049.79,470.973 4049.52,469.988 4048.99,469.18C4048.49,468.354 4047.76,467.712 4046.81,467.255C4045.87,466.798 4044.75,466.569 4043.43,466.569L4037.31,466.569L4037.31,477.67ZM4071.04,498.685C4069.17,498.685 4067.52,498.386 4066.08,497.788C4064.66,497.173 4063.53,496.259 4062.7,495.046C4061.9,493.816 4061.49,492.277 4061.49,490.432C4061.49,488.85 4061.77,487.531 4062.34,486.477C4062.9,485.422 4063.67,484.569 4064.66,483.919C4065.66,483.251 4066.81,482.75 4068.11,482.416C4069.43,482.065 4070.82,481.818 4072.28,481.678C4073.96,481.537 4075.31,481.388 4076.31,481.23C4077.31,481.054 4078.03,480.817 4078.45,480.518C4078.89,480.201 4079.11,479.762 4079.11,479.199L4079.11,479.041C4079.11,478.461 4078.94,477.96 4078.61,477.538C4078.29,477.099 4077.83,476.756 4077.23,476.51C4076.64,476.264 4075.92,476.141 4075.1,476.141C4074.24,476.141 4073.48,476.273 4072.83,476.536C4072.2,476.782 4071.7,477.151 4071.33,477.644C4070.96,478.118 4070.74,478.681 4070.67,479.331L4062.47,479.331C4062.61,477.345 4063.19,475.64 4064.21,474.216C4065.25,472.775 4066.7,471.676 4068.59,470.92C4070.47,470.147 4072.73,469.76 4075.39,469.76C4077.39,469.76 4079.17,469.98 4080.71,470.419C4082.26,470.841 4083.56,471.474 4084.62,472.317C4085.69,473.144 4086.5,474.154 4087.04,475.35C4087.59,476.545 4087.86,477.907 4087.86,479.437L4087.86,498.21L4079.24,498.21L4079.24,494.281L4079.13,494.281C4078.59,495.266 4077.94,496.083 4077.18,496.734C4076.44,497.384 4075.56,497.876 4074.54,498.21C4073.54,498.526 4072.37,498.685 4071.04,498.685ZM4073.67,492.858C4074.73,492.858 4075.67,492.664 4076.5,492.277C4077.34,491.873 4078,491.319 4078.47,490.616C4078.95,489.913 4079.18,489.096 4079.18,488.164L4079.18,485.58C4078.96,485.686 4078.67,485.791 4078.32,485.897C4077.98,486.002 4077.59,486.108 4077.16,486.213C4076.73,486.301 4076.27,486.389 4075.76,486.477C4075.25,486.565 4074.7,486.652 4074.12,486.74C4073.3,486.881 4072.56,487.092 4071.91,487.373C4071.28,487.637 4070.77,487.988 4070.41,488.428C4070.04,488.867 4069.85,489.403 4069.85,490.036C4069.85,490.616 4070.01,491.126 4070.33,491.566C4070.64,491.987 4071.08,492.313 4071.64,492.541C4072.22,492.752 4072.9,492.858 4073.67,492.858ZM4095.66,477.195L4090.92,477.195L4090.92,470.366L4095.66,470.366L4095.66,462.773L4104.5,462.773L4104.5,470.366L4110.22,470.366L4110.22,477.195L4104.5,477.195L4104.5,489.008C4104.5,489.904 4104.67,490.528 4105.02,490.88C4105.39,491.214 4106.09,491.381 4107.11,491.381L4110.22,491.381L4110.22,498.21L4105.21,498.21C4101.92,498.21 4099.51,497.586 4097.96,496.338C4096.43,495.09 4095.66,493.13 4095.66,490.458L4095.66,477.195ZM4122.74,474.683C4123.4,473.629 4124.16,472.717 4125.04,471.948C4126.67,470.489 4128.81,469.76 4131.44,469.76C4133.47,469.76 4135.19,470.199 4136.61,471.078C4138.05,471.94 4139.15,473.188 4139.91,474.822C4140.68,476.457 4141.07,478.426 4141.07,480.729L4141.07,498.21L4132.24,498.21L4132.24,482.522C4132.24,480.834 4131.83,479.542 4131.02,478.646C4130.23,477.749 4129.09,477.301 4127.6,477.301C4126.63,477.301 4125.78,477.512 4125.04,477.934C4124.32,478.338 4123.75,478.962 4123.35,479.806C4122.95,480.632 4122.74,481.704 4122.74,483.023L4122.74,498.21L4113.91,498.21L4113.91,458.923L4122.74,458.923L4122.74,474.683ZM4162.66,498.843C4159.34,498.843 4156.45,498.245 4153.99,497.05C4151.53,495.837 4149.61,494.15 4148.24,491.987C4146.89,489.808 4146.21,487.285 4146.21,484.42L4146.21,458.923L4155.18,458.923L4155.18,483.655C4155.18,485.079 4155.49,486.345 4156.12,487.452C4156.76,488.542 4157.64,489.403 4158.76,490.036C4159.89,490.669 4161.2,490.985 4162.69,490.985C4164.18,490.985 4165.48,490.669 4166.59,490.036C4167.72,489.403 4168.59,488.542 4169.2,487.452C4169.84,486.362 4170.15,485.097 4170.15,483.655L4170.15,458.923L4179.14,458.923L4179.14,484.42C4179.14,487.303 4178.46,489.825 4177.09,491.987C4175.73,494.15 4173.83,495.837 4171.36,497.05C4168.9,498.245 4166,498.843 4162.66,498.843ZM4192.96,474.899C4193.65,473.753 4194.45,472.769 4195.39,471.948C4197.02,470.489 4199.16,469.76 4201.79,469.76C4203.81,469.76 4205.54,470.199 4206.96,471.078C4208.4,471.94 4209.5,473.188 4210.26,474.822C4211.03,476.457 4211.42,478.426 4211.42,480.729L4211.42,498.21L4202.58,498.21L4202.58,482.522C4202.58,480.834 4202.18,479.542 4201.37,478.646C4200.58,477.749 4199.44,477.301 4197.94,477.301C4196.98,477.301 4196.12,477.512 4195.39,477.934C4194.66,478.338 4194.1,478.962 4193.7,479.806C4193.29,480.632 4193.09,481.704 4193.09,483.023L4193.09,498.21L4184.26,498.21L4184.26,470.366L4192.96,470.366L4192.96,474.899ZM4216.56,498.21L4216.56,470.366L4225.39,470.366L4225.39,498.21L4216.56,498.21ZM4220.96,467.492C4219.54,467.492 4218.36,467.07 4217.43,466.227C4216.51,465.365 4216.06,464.284 4216.06,462.984C4216.06,461.683 4216.51,460.619 4217.43,459.793C4218.36,458.949 4219.53,458.527 4220.94,458.527C4222.36,458.527 4223.53,458.949 4224.44,459.793C4225.37,460.619 4225.84,461.692 4225.84,463.01C4225.84,464.311 4225.37,465.383 4224.44,466.227C4223.53,467.07 4222.37,467.492 4220.96,467.492ZM4233.2,477.195L4228.45,477.195L4228.45,470.366L4233.2,470.366L4233.2,462.773L4242.03,462.773L4242.03,470.366L4247.75,470.366L4247.75,477.195L4242.03,477.195L4242.03,489.008C4242.03,489.904 4242.2,490.528 4242.56,490.88C4242.93,491.214 4243.62,491.381 4244.64,491.381L4247.75,491.381L4247.75,498.21L4242.74,498.21C4239.45,498.21 4237.04,497.586 4235.49,496.338C4233.96,495.09 4233.2,493.13 4233.2,490.458L4233.2,477.195ZM4258.36,486.477C4258.39,487.617 4258.62,488.619 4259.04,489.483C4259.51,490.432 4260.2,491.161 4261.09,491.671C4261.99,492.181 4263.07,492.436 4264.34,492.436C4265.25,492.436 4266.07,492.313 4266.79,492.067C4267.51,491.803 4268.11,491.442 4268.58,490.985C4269.07,490.511 4269.43,489.957 4269.66,489.324L4277.6,489.324C4277.26,491.188 4276.45,492.84 4275.17,494.281C4273.91,495.705 4272.31,496.821 4270.37,497.63C4268.46,498.439 4266.34,498.843 4264.02,498.843C4261.19,498.843 4258.7,498.228 4256.56,496.997C4254.41,495.749 4252.74,494.026 4251.55,491.829C4250.35,489.632 4249.75,487.127 4249.75,484.315C4249.75,481.467 4250.35,478.953 4251.55,476.774C4252.76,474.576 4254.41,472.854 4256.5,471.606C4258.61,470.358 4261.04,469.734 4263.78,469.734C4265.87,469.734 4267.77,470.085 4269.48,470.788C4271.2,471.474 4272.68,472.458 4273.91,473.741C4275.15,475.025 4276.11,476.545 4276.78,478.303C4277.47,480.061 4277.81,481.994 4277.81,484.104L4277.81,486.477L4258.36,486.477ZM4258.42,481.15L4269.6,481.15C4269.5,480.368 4269.29,479.674 4268.98,479.067C4268.52,478.171 4267.87,477.485 4267.02,477.011C4266.18,476.519 4265.17,476.273 4263.99,476.273C4262.83,476.273 4261.83,476.519 4260.99,477.011C4260.14,477.485 4259.49,478.171 4259.04,479.067C4258.72,479.674 4258.51,480.368 4258.42,481.15Z" style="fill:rgb(170,170,170);"/>
                    </g>
                </g>
            </g>
        </g>
    </g>
</svg>
