<?xml version="1.0" encoding="UTF-8" standalone="no"?>
<!DOCTYPE svg PUBLIC "-//W3C//DTD SVG 1.1//EN" "http://www.w3.org/Graphics/SVG/1.1/DTD/svg11.dtd">
<svg width="100%" height="100%" viewBox="0 0 360 450" version="1.1" xmlns="http://www.w3.org/2000/svg" xmlns:xlink="http://www.w3.org/1999/xlink" xml:space="preserve" xmlns:serif="http://www.serif.com/" style="fill-rule:evenodd;clip-rule:evenodd;stroke-linejoin:round;stroke-miterlimit:2;">
    <g transform="matrix(1,0,0,1,-2750,-315)">
        <g id="Logo" transform="matrix(1.8,0,0,1.8,633.52,-657)">
            <g transform="matrix(1.10384,0,0,1.3798,-138.975,-228.087)">
                <rect x="1191.12" y="556.667" width="181.186" height="181.186" style="fill:rgb(10,10,10);"/>
                <path d="M1372.3,556.667L1372.3,737.853L1191.12,737.853L1191.12,556.667L1372.3,556.667ZM1371.29,557.472L1192.12,557.472L1192.12,737.048L1371.29,737.048L1371.29,557.472Z" style="fill:rgb(170,170,170);"/>
            </g>
            <g id="PathUniteText" transform="matrix(1.24323,0,0,1.24323,832.804,230.379)">
                <path d="M299.467,425.716L299.467,408.262L306.354,408.262C307.677,408.262 308.805,408.515 309.737,409.02C310.669,409.52 311.379,410.216 311.868,411.108C312.362,411.995 312.609,413.017 312.609,414.177C312.609,415.336 312.359,416.358 311.859,417.245C311.359,418.131 310.635,418.821 309.686,419.316C308.743,419.81 307.601,420.057 306.26,420.057L301.871,420.057L301.871,417.1L305.663,417.1C306.374,417.1 306.959,416.978 307.419,416.733C307.885,416.483 308.231,416.14 308.459,415.702C308.692,415.259 308.808,414.75 308.808,414.177C308.808,413.597 308.692,413.091 308.459,412.659C308.231,412.222 307.885,411.884 307.419,411.645C306.953,411.401 306.362,411.279 305.646,411.279L303.158,411.279L303.158,425.716L299.467,425.716Z" style="fill:rgb(170,170,170);fill-rule:nonzero;"/>
                <path d="M318.328,425.963C317.493,425.963 316.749,425.819 316.095,425.529C315.442,425.233 314.925,424.799 314.544,424.225C314.169,423.645 313.981,422.924 313.981,422.06C313.981,421.333 314.115,420.722 314.382,420.228C314.649,419.733 315.013,419.336 315.473,419.034C315.933,418.733 316.456,418.506 317.041,418.353C317.632,418.199 318.251,418.091 318.899,418.029C319.66,417.949 320.274,417.875 320.74,417.807C321.206,417.733 321.544,417.625 321.754,417.483C321.964,417.341 322.07,417.131 322.07,416.853L322.07,416.802C322.07,416.262 321.899,415.844 321.558,415.549C321.223,415.253 320.746,415.106 320.126,415.106C319.473,415.106 318.953,415.25 318.567,415.54C318.18,415.824 317.925,416.182 317.8,416.614L314.442,416.341C314.612,415.546 314.947,414.858 315.447,414.279C315.947,413.694 316.592,413.245 317.382,412.932C318.177,412.614 319.098,412.455 320.143,412.455C320.871,412.455 321.567,412.54 322.231,412.711C322.902,412.881 323.496,413.145 324.013,413.503C324.535,413.861 324.947,414.321 325.249,414.884C325.55,415.441 325.7,416.108 325.7,416.887L325.7,425.716L322.257,425.716L322.257,423.901L322.155,423.901C321.945,424.31 321.663,424.671 321.311,424.983C320.959,425.29 320.535,425.532 320.041,425.708C319.547,425.878 318.976,425.963 318.328,425.963ZM319.368,423.458C319.902,423.458 320.374,423.353 320.783,423.142C321.192,422.927 321.513,422.637 321.746,422.273C321.979,421.909 322.095,421.498 322.095,421.037L322.095,419.648C321.981,419.722 321.825,419.79 321.626,419.853C321.433,419.909 321.214,419.963 320.97,420.015C320.726,420.06 320.481,420.103 320.237,420.142C319.993,420.177 319.771,420.208 319.572,420.236C319.146,420.299 318.774,420.398 318.456,420.534C318.138,420.671 317.891,420.856 317.714,421.088C317.538,421.316 317.45,421.6 317.45,421.941C317.45,422.435 317.629,422.813 317.987,423.074C318.351,423.33 318.811,423.458 319.368,423.458Z" style="fill:rgb(170,170,170);fill-rule:nonzero;"/>
                <path d="M335.484,412.625L335.484,415.353L327.601,415.353L327.601,412.625L335.484,412.625ZM329.391,409.489L333.021,409.489L333.021,421.694C333.021,422.029 333.072,422.29 333.175,422.478C333.277,422.659 333.419,422.787 333.601,422.861C333.788,422.935 334.004,422.972 334.249,422.972C334.419,422.972 334.589,422.958 334.76,422.929C334.93,422.895 335.061,422.87 335.152,422.853L335.723,425.554C335.541,425.611 335.285,425.677 334.956,425.75C334.626,425.83 334.226,425.878 333.754,425.895C332.879,425.929 332.112,425.813 331.453,425.546C330.8,425.279 330.291,424.864 329.927,424.302C329.564,423.739 329.385,423.029 329.391,422.171L329.391,409.489Z" style="fill:rgb(170,170,170);fill-rule:nonzero;"/>
                <path d="M341.749,418.148L341.749,425.716L338.118,425.716L338.118,408.262L341.646,408.262L341.646,414.935L341.8,414.935C342.095,414.162 342.572,413.557 343.231,413.12C343.891,412.677 344.717,412.455 345.712,412.455C346.621,412.455 347.413,412.654 348.089,413.052C348.771,413.444 349.3,414.009 349.675,414.748C350.055,415.481 350.243,416.358 350.237,417.381L350.237,425.716L346.606,425.716L346.606,418.029C346.612,417.222 346.408,416.594 345.993,416.145C345.584,415.696 345.01,415.472 344.271,415.472C343.777,415.472 343.339,415.577 342.959,415.787C342.584,415.998 342.288,416.304 342.072,416.708C341.862,417.106 341.754,417.586 341.749,418.148Z" style="fill:rgb(170,170,170);fill-rule:nonzero;"/>
                <path d="M363.95,408.262L367.641,408.262L367.641,419.597C367.641,420.87 367.337,421.983 366.729,422.938C366.126,423.892 365.283,424.637 364.197,425.171C363.112,425.699 361.848,425.963 360.405,425.963C358.956,425.963 357.689,425.699 356.604,425.171C355.518,424.637 354.675,423.892 354.072,422.938C353.47,421.983 353.169,420.87 353.169,419.597L353.169,408.262L356.859,408.262L356.859,419.282C356.859,419.946 357.004,420.537 357.294,421.054C357.589,421.571 358.004,421.978 358.538,422.273C359.072,422.569 359.695,422.716 360.405,422.716C361.121,422.716 361.743,422.569 362.271,422.273C362.805,421.978 363.217,421.571 363.507,421.054C363.802,420.537 363.95,419.946 363.95,419.282L363.95,408.262Z" style="fill:rgb(170,170,170);fill-rule:nonzero;"/>
                <path d="M374.237,418.148L374.237,425.716L370.606,425.716L370.606,412.625L374.067,412.625L374.067,414.935L374.22,414.935C374.51,414.174 374.996,413.571 375.677,413.128C376.359,412.679 377.186,412.455 378.158,412.455C379.067,412.455 379.859,412.654 380.535,413.052C381.212,413.449 381.737,414.017 382.112,414.756C382.487,415.489 382.675,416.364 382.675,417.381L382.675,425.716L379.044,425.716L379.044,418.029C379.05,417.228 378.845,416.603 378.43,416.154C378.016,415.699 377.445,415.472 376.717,415.472C376.229,415.472 375.797,415.577 375.422,415.787C375.052,415.998 374.763,416.304 374.552,416.708C374.348,417.106 374.243,417.586 374.237,418.148Z" style="fill:rgb(170,170,170);fill-rule:nonzero;"/>
                <path d="M385.53,425.716L385.53,412.625L389.16,412.625L389.16,425.716L385.53,425.716ZM387.354,410.938C386.814,410.938 386.351,410.759 385.964,410.401C385.584,410.037 385.393,409.603 385.393,409.097C385.393,408.597 385.584,408.168 385.964,407.81C386.351,407.446 386.814,407.265 387.354,407.265C387.893,407.265 388.354,407.446 388.734,407.81C389.121,408.168 389.314,408.597 389.314,409.097C389.314,409.603 389.121,410.037 388.734,410.401C388.354,410.759 387.893,410.938 387.354,410.938Z" style="fill:rgb(170,170,170);fill-rule:nonzero;"/>
                <path d="M399.021,412.625L399.021,415.353L391.138,415.353L391.138,412.625L399.021,412.625ZM392.927,409.489L396.558,409.489L396.558,421.694C396.558,422.029 396.609,422.29 396.712,422.478C396.814,422.659 396.956,422.787 397.138,422.861C397.325,422.935 397.541,422.972 397.785,422.972C397.956,422.972 398.126,422.958 398.297,422.929C398.467,422.895 398.598,422.87 398.689,422.853L399.26,425.554C399.078,425.611 398.822,425.677 398.493,425.75C398.163,425.83 397.763,425.878 397.291,425.895C396.416,425.929 395.649,425.813 394.99,425.546C394.337,425.279 393.828,424.864 393.464,424.302C393.101,423.739 392.922,423.029 392.927,422.171L392.927,409.489Z" style="fill:rgb(170,170,170);fill-rule:nonzero;"/>
                <path d="M407.212,425.972C405.865,425.972 404.706,425.699 403.734,425.154C402.768,424.603 402.024,423.824 401.501,422.819C400.979,421.807 400.717,420.611 400.717,419.231C400.717,417.884 400.979,416.702 401.501,415.685C402.024,414.668 402.76,413.875 403.709,413.307C404.663,412.739 405.783,412.455 407.067,412.455C407.93,412.455 408.734,412.594 409.479,412.873C410.229,413.145 410.882,413.557 411.439,414.108C412.001,414.659 412.439,415.353 412.751,416.188C413.064,417.017 413.22,417.989 413.22,419.103L413.22,420.1L402.166,420.1L402.166,417.85L409.802,417.85C409.802,417.327 409.689,416.864 409.462,416.461C409.234,416.057 408.919,415.742 408.516,415.515C408.118,415.282 407.655,415.165 407.126,415.165C406.575,415.165 406.087,415.293 405.66,415.549C405.24,415.799 404.91,416.137 404.672,416.563C404.433,416.983 404.311,417.452 404.305,417.969L404.305,420.108C404.305,420.756 404.425,421.316 404.663,421.787C404.908,422.259 405.251,422.623 405.695,422.878C406.138,423.134 406.663,423.262 407.271,423.262C407.675,423.262 408.044,423.205 408.379,423.091C408.714,422.978 409.001,422.807 409.24,422.58C409.479,422.353 409.66,422.074 409.785,421.745L413.143,421.966C412.973,422.773 412.624,423.478 412.095,424.08C411.572,424.677 410.896,425.142 410.067,425.478C409.243,425.807 408.291,425.972 407.212,425.972Z" style="fill:rgb(170,170,170);fill-rule:nonzero;"/>
            </g>
            <g id="BarsWithEdits" transform="matrix(0.707107,-0.707107,0.707107,0.707107,370.01,707.382)">
                <g transform="matrix(0.452407,0,0,2.33744,496.542,-1027.49)">
                    <rect x="449.359" y="670.602" width="13.002" height="42.782" style="fill:rgb(170,170,170);"/>
                </g>
                <g transform="matrix(0.452407,0,0,2.33744,473.013,-1027.49)">
                    <rect x="449.359" y="670.602" width="13.002" height="42.782" style="fill:rgb(170,170,170);"/>
                </g>
                <g transform="matrix(0.452407,0,0,2.33744,484.777,-1027.49)">
                    <rect x="449.359" y="670.602" width="13.002" height="42.782" style="fill:rgb(170,170,170);"/>
                </g>
                <g transform="matrix(0.452407,0,0,2.33744,531.836,-1027.49)">
                    <path d="M462.362,670.602L462.362,713.384L449.359,713.384L449.359,688.181C449.359,685.976 450.672,683.778 453.272,681.631L457.485,678.152C457.846,677.853 458.121,677.551 458.307,677.246L462.362,670.602Z" style="fill:rgb(170,170,170);"/>
                </g>
                <g transform="matrix(0.452407,0,0,2.33744,520.072,-1027.49)">
                    <path d="M462.362,670.602L462.362,713.384L449.359,713.384L449.359,688.181C449.359,685.976 450.672,683.778 453.272,681.631L457.485,678.152C457.846,677.853 458.121,677.551 458.307,677.246L462.362,670.602Z" style="fill:rgb(170,170,170);"/>
                </g>
                <g transform="matrix(0.452407,0,0,2.33744,508.307,-1027.49)">
                    <path d="M462.362,670.602L462.362,713.384L449.359,713.384L449.359,688.181C449.359,685.976 450.672,683.778 453.272,681.631L457.485,678.152C457.846,677.853 458.121,677.551 458.307,677.246L462.362,670.602Z" style="fill:rgb(170,170,170);"/>
                </g>
                <g transform="matrix(-0.452407,-5.54039e-17,2.86254e-16,-2.33744,850.188,2207.49)">
                    <path d="M462.362,670.602L462.362,713.384L449.359,713.384L449.359,688.181C449.359,685.976 450.672,683.778 453.272,681.631L457.485,678.152C457.846,677.853 458.121,677.551 458.307,677.246L462.362,670.602Z" style="fill:rgb(170,170,170);"/>
                </g>
                <g transform="matrix(-0.452407,-5.54039e-17,2.86254e-16,-2.33744,861.953,2207.49)">
                    <path d="M462.362,670.602L462.362,713.384L449.359,713.384L449.359,688.181C449.359,685.976 450.672,683.778 453.272,681.631L457.485,678.152C457.846,677.853 458.121,677.551 458.307,677.246L462.362,670.602Z" style="fill:rgb(170,170,170);"/>
                </g>
                <g transform="matrix(-0.452407,-5.54039e-17,2.86254e-16,-2.33744,873.717,2207.49)">
                    <path d="M462.362,670.602L462.362,713.384L449.359,713.384L449.359,688.181C449.359,685.976 450.672,683.778 453.272,681.631L457.485,678.152C457.846,677.853 458.121,677.551 458.307,677.246L462.362,670.602Z" style="fill:rgb(170,170,170);"/>
                </g>
            </g>
        </g>
    </g>
</svg>
